<?xml version="1.0" standalone="no"?>
<!DOCTYPE svg PUBLIC "-//W3C//DTD SVG 20010904//EN"
 "http://www.w3.org/TR/2001/REC-SVG-20010904/DTD/svg10.dtd">
<svg version="1.0" xmlns="http://www.w3.org/2000/svg"
 width="585.000000pt" height="585.000000pt" viewBox="0 0 585.000000 585.000000"
 preserveAspectRatio="xMidYMid meet">

<g transform="translate(0.000000,585.000000) scale(0.100000,-0.100000)"
fill="#000000" stroke="none">
<path d="M2671 5820 c-996 -96 -1860 -679 -2317 -1564 -154 -299 -250 -596
-299 -928 -25 -176 -39 -511 -25 -652 36 -385 129 -714 297 -1049 361 -722
995 -1257 1764 -1491 446 -135 952 -157 1423 -61 1093 221 1963 1051 2237
2132 55 219 79 394 86 628 13 453 -66 861 -243 1263 -409 923 -1268 1568
-2274 1707 -137 19 -516 27 -649 15z m1807 -920 c26 -14 54 -42 68 -66 l24
-41 0 -1234 0 -1235 -29 -45 c-55 -87 -28 -84 -673 -87 l-568 -2 0 -198 c0
-193 1 -199 26 -250 36 -73 110 -135 228 -192 146 -70 203 -80 466 -80 271 0
304 -9 351 -102 40 -79 11 -186 -64 -236 l-41 -27 -1331 0 -1331 0 -42 28
c-119 78 -106 260 22 318 36 16 68 19 267 19 264 0 327 11 474 85 105 52 174
108 213 173 27 47 27 49 30 254 l3 207 -574 3 -575 3 -43 30 c-23 17 -52 48
-63 70 -21 40 -21 42 -21 1265 l0 1225 22 42 c25 47 62 77 113 91 23 7 554 10
1520 9 l1485 -2 43 -25z"/>
</g>
</svg>
